<?xml version="1.0" encoding="utf-8"?>
<!-- Generator: Adobe Illustrator 24.0.1, SVG Export Plug-In . SVG Version: 6.00 Build 0)  -->
<svg version="1.1" id="Layer_1" xmlns="http://www.w3.org/2000/svg" xmlns:xlink="http://www.w3.org/1999/xlink" x="0px" y="0px"
	 viewBox="0 0 40 38" style="enable-background:new 0 0 40 38;" xml:space="preserve">
<style type="text/css">
	.st0{fill:#32B44A;}
	.st1{fill:#3DB54A;}
</style>
<g>
	<g>
		<path class="st0" d="M20,0C12.73,0,6.81,5.92,6.81,13.19c0,7,11.96,23.35,12.47,24.04l0.48,0.65C19.82,37.96,19.91,38,20,38
			c0.09,0,0.18-0.04,0.24-0.12l0.48-0.65c0.51-0.69,12.47-17.05,12.47-24.04C33.19,5.92,27.27,0,20,0z M17.51,3.96
			c7.36-1.94,13.92,4.61,11.98,11.98c-0.85,3.24-3.47,5.86-6.7,6.73c-7.38,1.98-13.98-4.62-12-12C11.65,7.43,14.27,4.82,17.51,3.96z
			"/>
	</g>
	<g>
	</g>
	<g>
	</g>
	<g>
	</g>
	<g>
	</g>
	<g>
	</g>
	<g>
	</g>
	<g>
	</g>
	<g>
	</g>
	<g>
	</g>
	<g>
	</g>
	<g>
	</g>
	<g>
	</g>
	<g>
	</g>
	<g>
	</g>
	<g>
	</g>
</g>
<g>
	<g>
		<path class="st1" d="M27.37,8.36c-0.06-0.17-0.22-0.29-0.4-0.29H15.45c-0.24,0-0.43,0.19-0.43,0.43v3.23
			c0,0.88,0.72,1.59,1.59,1.59h0.28v0.8c0,0.5,0.41,0.9,0.9,0.9h0.17c-0.13,0.89-0.9,1.58-1.82,1.58c-0.04,0-0.07,0.01-0.11,0.01
			v-0.23c0-0.5-0.41-0.9-0.9-0.9h-1.12c-0.24,0-0.43,0.19-0.43,0.43v2.23c0,0.24,0.19,0.43,0.43,0.43h1.12c0.5,0,0.9-0.41,0.9-0.9
			v-0.22c0.03,0.01,0.07,0.01,0.11,0.01c1.4,0,2.55-1.07,2.69-2.43h0.24c0.5,0,0.9-0.41,0.9-0.9v-0.8h4.65
			c0.88,0,1.59-0.72,1.59-1.59V9.64l1.02-0.81C27.38,8.72,27.43,8.53,27.37,8.36z"/>
		<path class="st1" d="M26.88,9.66c-0.24,0-0.43,0.19-0.43,0.43v1.67c0,0.24,0.19,0.43,0.43,0.43s0.43-0.19,0.43-0.43v-1.67
			C27.31,9.86,27.12,9.66,26.88,9.66z"/>
	</g>
	<g>
	</g>
	<g>
	</g>
	<g>
	</g>
	<g>
	</g>
	<g>
	</g>
	<g>
	</g>
	<g>
	</g>
	<g>
	</g>
	<g>
	</g>
	<g>
	</g>
	<g>
	</g>
	<g>
	</g>
	<g>
	</g>
	<g>
	</g>
	<g>
	</g>
</g>
</svg>
