<svg width="32px" height="32px" viewBox="0 0 32 32" id="Lager_75" data-name="Lager 75" xmlns="http://www.w3.org/2000/svg">
  <path id="Path_86" data-name="Path 86" d="M16,0A16,16,0,1,0,32,16,16,16,0,0,0,16,0Zm0,4a11.917,11.917,0,0,1,6.942,2.23L20.058,9.114a7.948,7.948,0,0,0-8.116,0L9.058,6.23A11.917,11.917,0,0,1,16,4Zm4,12a3.478,3.478,0,0,1-.062.617,3.982,3.982,0,0,1-3.321,3.321,3.1,3.1,0,0,1-1.234,0,3.982,3.982,0,0,1-3.321-3.321,3.1,3.1,0,0,1,0-1.234,3.981,3.981,0,0,1,3.321-3.321,3.1,3.1,0,0,1,1.234,0,3.981,3.981,0,0,1,3.321,3.321A3.478,3.478,0,0,1,20,16ZM4,16A11.917,11.917,0,0,1,6.23,9.058l2.884,2.884a7.948,7.948,0,0,0,0,8.116L6.23,22.942A11.917,11.917,0,0,1,4,16ZM16,28a11.917,11.917,0,0,1-6.942-2.23l2.884-2.884a7.948,7.948,0,0,0,8.116,0l2.884,2.884A11.917,11.917,0,0,1,16,28Zm9.77-5.058-2.884-2.884a7.948,7.948,0,0,0,0-8.116L25.77,9.058a11.92,11.92,0,0,1,0,13.884Z" fill="#d81421"/>
</svg>
